<svg width="38" height="38" viewBox="0 0 38 38" fill="none" xmlns="http://www.w3.org/2000/svg">
<rect width="38" height="38" rx="4" fill="#F4F5F6"/>
<path d="M12.1428 27.0003C14.6676 27.0003 16.7143 24.9536 16.7143 22.4289C16.7143 19.9041 14.6676 17.8574 12.1428 17.8574C9.61811 17.8574 7.57141 19.9041 7.57141 22.4289C7.57141 24.9536 9.61811 27.0003 12.1428 27.0003Z" stroke="#BC2327" stroke-width="2" stroke-linecap="round" stroke-linejoin="round"/>
<path d="M25.8572 27.0003C28.3819 27.0003 30.4286 24.9536 30.4286 22.4289C30.4286 19.9041 28.3819 17.8574 25.8572 17.8574C23.3324 17.8574 21.2857 19.9041 21.2857 22.4289C21.2857 24.9536 23.3324 27.0003 25.8572 27.0003Z" stroke="#BC2327" stroke-width="2" stroke-linecap="round" stroke-linejoin="round"/>
<path d="M21.2857 22.4283C21.2857 21.8221 21.0449 21.2407 20.6162 20.812C20.1876 20.3834 19.6062 20.1426 19 20.1426C18.3938 20.1426 17.8124 20.3834 17.3838 20.812C16.9551 21.2407 16.7143 21.8221 16.7143 22.4283" stroke="#BC2327" stroke-width="2" stroke-linecap="round" stroke-linejoin="round"/>
<path d="M8.14285 20.1429L11 13.2857C11.8 11.8 12.6 11 14.4286 11" stroke="#BC2327" stroke-width="2" stroke-linecap="round" stroke-linejoin="round"/>
<path d="M29.8571 20.1429L27 13.2857C26.2 11.8 25.2857 11 23.5714 11" stroke="#BC2327" stroke-width="2" stroke-linecap="round" stroke-linejoin="round"/>
</svg>
